<svg xmlns="http://www.w3.org/2000/svg" width="182.408" height="73.878" viewBox="1.296 1.388 182.408 73.878"><path fill="#FFF" d="M15.633 25.072c8.155 0 12.759 5.853 12.759 14.994 0 1.117-.066 2.168-.197 2.957H6.623c.396 6.907 4.538 11.247 10.654 11.247 3.025 0 5.59-.985 7.957-2.498l1.908 3.552c-2.763 1.774-6.183 3.288-10.523 3.288-8.549 0-15.323-6.247-15.323-16.704s7.037-16.836 14.337-16.836zm8.023 14.403c0-6.512-2.895-10.128-7.892-10.128-4.473 0-8.55 3.684-9.207 10.128h17.099zm69.056-14.403c8.154 0 12.759 5.853 12.759 14.994 0 1.117-.066 2.168-.197 2.957H83.701c.396 6.907 4.539 11.247 10.654 11.247 3.025 0 5.59-.985 7.957-2.498l1.908 3.552c-2.764 1.774-6.183 3.288-10.523 3.288-8.548 0-15.322-6.247-15.322-16.704s7.037-16.836 14.337-16.836zm8.022 14.403c0-6.512-2.895-10.128-7.892-10.128-4.473 0-8.55 3.684-9.207 10.128h17.099zm9.096-28.478h5.393v40.776c0 1.709.725 2.367 1.512 2.367.33 0 .594 0 1.186-.132l.725 4.076c-.725.33-1.646.526-3.092.526-4.078 0-5.722-2.563-5.722-7.233l-.002-40.38zm14.921 0h5.392v40.776c0 1.709.725 2.367 1.514 2.367.328 0 .593 0 1.184-.132l.725 4.076c-.725.33-1.646.526-3.092.526-4.078 0-5.721-2.563-5.721-7.233l-.002-40.38zm24.308 14.075c8.154 0 12.758 5.853 12.758 14.994 0 1.117-.065 2.168-.196 2.957H140.05c.395 6.906 4.538 11.246 10.653 11.246 3.026 0 5.592-.985 7.958-2.498l1.908 3.552c-2.764 1.774-6.182 3.288-10.523 3.288-8.549 0-15.322-6.247-15.322-16.704-.003-10.456 7.035-16.835 14.335-16.835zm8.022 14.403c0-6.512-2.894-10.128-7.892-10.128-4.474 0-8.549 3.684-9.207 10.128h17.099zm8.999-13.615h4.471l.461 5.787h.197c2.171-4.011 5.459-6.574 9.076-6.574 1.38 0 2.367.197 3.419.657l-1.052 4.735c-1.053-.329-1.775-.526-3.092-.526-2.695 0-5.918 1.975-8.09 7.367v20.519h-5.392l.002-31.965z"/><path fill="none" d="M60.116 24.838l-.018.002.017.006.001-.008zM48.244 58.396l.015-.022-.029-.004.014.026zm9.814-18.832l.092-.002c-.011-.014-.023-.024-.034-.039l-.058.041zm-1.989 6.488l-.021.035c.015-.004.028-.012.042-.019l-.021-.016zm-.046-.043l.046.043.022-.032z"/><path fill="none" d="M56.192 46.032l-.102-.015-.021.033.021.018a.774.774 0 0 0 .102-.036zM38.433 29.108l.101-.02c-.012-.01-.022-.021-.036-.031l-.065.051zm19.599 10.456l.014.006.012-.006zm-.01-.007l-.001.007h.011z"/><path fill="none" d="M58.058 39.564l-.012.006.224.137a3.293 3.293 0 0 0-.12-.145l-.092.002z"/><path fill="none" d="M58.058 39.564l.058-.041a5.452 5.452 0 0 0-.077-.082l-.016.115.01.008h.025zm-.037 0l-.004.026.029-.02-.014-.006z"/><path fill="#D7A560" d="M56.09 46.068l9.831 9.229c3.014-1.75 5.228-4.11 6.604-6.883l-16.332-2.383a.708.708 0 0 1-.103.037z"/><path fill="#FFC300" d="M56.048 46.087l-7.789 12.287c1.185.149 2.358.237 3.503.237 5.821 0 10.559-1.223 14.159-3.313l-9.831-9.229c-.014.006-.027.014-.042.018z"/><path fill="#FFE904" d="M58.27 39.707c.551.673.865 1.425.865 2.289 0 1.893-.922 3.299-2.942 4.037l16.332 2.383c.016-.029.031-.061.046-.092L58.27 39.707z"/><path fill="#F46C2D" d="M30.853 51.02c4.615 3.785 11.164 6.555 17.377 7.352L38.112 40.898 30.853 51.02z"/><path fill="#FF8723" d="M52.2 46.616c-4.62 0-9.133-1.98-14.085-5.722l-.003.004L48.229 58.37l.029.004 7.789-12.287c-1.011.345-2.284.529-3.847.529z"/><path fill="#99D0A6" d="M70.563 31.121c-2.754-3.022-6.688-4.861-10.448-6.274l-2.077 14.596c.026.026.053.055.077.082l12.448-8.404z"/><path fill="#D0DD3B" d="M74.211 41.004c0-.52-.026-1.016-.067-1.503l-15.994.062c.042.047.081.096.12.145l14.301 8.617c1.082-2.22 1.64-4.691 1.64-7.321z"/><path fill="#5C4BED" d="M39.28 6.147c-3.624 2.998-5.676 7.251-5.676 12.298 0 4.599 2.03 8.023 4.893 10.612l11.365-8.832L39.28 6.147z"/><path fill="#4AA6DE" d="M60.099 24.84l-21.565 4.248c2.751 2.477 6.262 4.188 9.485 5.424 4.102 1.606 8.14 2.924 10.02 4.93l2.077-14.595-.017-.007z"/><path fill="#4A8DC9" d="M59.464 24.607c-4.028-1.5-7.773-2.604-9.566-4.411l-.035.029.008.01-.008-.01-11.365 8.832.036.031 21.565-4.248a71.684 71.684 0 0 0-.635-.233z"/><path fill="#FF3DFE" d="M73.771 8.321c-3.894-2.896-8.759-5.715-15.017-6.625L66.57 17.92l7.201-9.599z"/><path fill="#4ACB40" d="M58.149 39.563l15.994-.062c-.295-3.552-1.646-6.259-3.58-8.381l-12.448 8.403c.011.015.024.026.034.04z"/><path fill="#9100C0" d="M49.897 20.196c-.703-.708-1.106-1.528-1.106-2.521 0-2.551 1.707-4.06 5.29-4.265l.003-.01-14.741-7.304-.063.051 10.582 14.078.035-.029z"/><path fill="#8A8A88" d="M54.081 13.41l.019-.002-.016-.008-.003.01z"/><path fill="#8B00B8" d="M54.1 13.408c.273-.017.556-.025.852-.025 3.854 0 7.594 1.761 11.557 4.622l.063-.084-7.817-16.225c-.052-.008-.107-.013-.161-.021L54.084 13.4l.016.008z"/><path fill="#9622FB" d="M58.594 1.675a29.348 29.348 0 0 0-4.081-.287c-6.312 0-11.526 1.724-15.17 4.708L54.084 13.4l4.51-11.725z"/><path d="M22.259 66.354h-2.258v-.814h5.497v.814h-2.27v6.61h-.969v-6.61zm5.993 4.12c.022 1.312.859 1.851 1.83 1.851.693 0 1.112-.12 1.475-.274l.166.694c-.342.153-.925.33-1.774.33-1.641 0-2.622-1.08-2.622-2.688s.947-2.875 2.5-2.875c1.741 0 2.204 1.531 2.204 2.512 0 .198-.022.353-.034.451h-3.745zm2.843-.694c.011-.617-.254-1.576-1.345-1.576-.98 0-1.41.904-1.487 1.576h2.832zm8.14 2.986c-.253.132-.815.309-1.531.309-1.609 0-2.655-1.091-2.655-2.722 0-1.642 1.124-2.831 2.865-2.831.573 0 1.079.143 1.344.275l-.22.749c-.231-.132-.595-.254-1.124-.254-1.223 0-1.884.904-1.884 2.017 0 1.234.793 1.994 1.85 1.994.551 0 .915-.144 1.19-.265l.165.728zm3.339-7.624h.97v3.327h.022c.154-.275.396-.518.694-.683.286-.165.628-.275.992-.275.716 0 1.861.44 1.861 2.28v3.173h-.969v-3.063c0-.859-.32-1.587-1.234-1.587-.628 0-1.123.44-1.299.97-.055.132-.066.275-.066.463v3.217h-.97v-7.822zm8.318 3.933c0-.551-.012-1.003-.044-1.443h.859l.055.881h.022c.264-.506.881-1.002 1.762-1.002.739 0 1.885.44 1.885 2.27v3.184h-.97v-3.073c0-.859-.319-1.576-1.234-1.576-.639 0-1.134.451-1.299.991a1.402 1.402 0 0 0-.066.452v3.206h-.969v-3.89zm13.143 1.179c0 1.972-1.367 2.831-2.655 2.831-1.443 0-2.556-1.058-2.556-2.743 0-1.784 1.168-2.831 2.645-2.831 1.53 0 2.566 1.112 2.566 2.743zm-4.232.055c0 1.168.672 2.049 1.62 2.049.925 0 1.62-.87 1.62-2.07 0-.904-.452-2.05-1.598-2.05-1.145-.001-1.642 1.057-1.642 2.071zm7.657-5.167h.97v7.822h-.97v-7.822zm9.629 5.112c0 1.972-1.366 2.831-2.655 2.831-1.443 0-2.555-1.058-2.555-2.743 0-1.784 1.167-2.831 2.644-2.831 1.53 0 2.566 1.112 2.566 2.743zm-4.231.055c0 1.168.672 2.049 1.62 2.049.925 0 1.62-.87 1.62-2.07 0-.904-.452-2.05-1.598-2.05-1.146-.001-1.642 1.057-1.642 2.071zm12.251-2.677c-.023.386-.044.814-.044 1.465v3.097c0 1.222-.243 1.972-.761 2.434-.517.485-1.267.64-1.938.64-.64 0-1.345-.154-1.774-.441l.242-.738c.352.222.903.419 1.564.419.992 0 1.718-.518 1.718-1.861v-.597h-.021c-.298.495-.87.892-1.697.892-1.322 0-2.27-1.123-2.27-2.6 0-1.807 1.179-2.831 2.401-2.831.927 0 1.433.484 1.664.925h.022l.044-.804h.85zm-1.003 2.104c0-.166-.011-.309-.055-.441-.176-.562-.65-1.024-1.355-1.024-.925 0-1.586.782-1.586 2.017 0 1.046.528 1.917 1.575 1.917.594 0 1.134-.375 1.344-.992a1.69 1.69 0 0 0 .077-.518v-.959zm5.784-3.602c.012.33-.231.595-.616.595a.577.577 0 0 1-.584-.595.59.59 0 0 1 .606-.606c.363-.001.594.264.594.606zm-1.079 6.83v-5.332h.969v5.332h-.969zm5.32-2.49c.022 1.312.86 1.851 1.829 1.851.694 0 1.112-.12 1.477-.274l.165.694c-.342.153-.926.33-1.773.33-1.642 0-2.622-1.08-2.622-2.688s.947-2.875 2.501-2.875c1.74 0 2.203 1.531 2.203 2.512 0 .198-.021.353-.033.451h-3.747zm2.843-.694c.011-.617-.253-1.576-1.344-1.576-.981 0-1.41.904-1.487 1.576h2.831zm4.208 2.193c.286.187.794.385 1.278.385.705 0 1.035-.353 1.035-.792 0-.463-.275-.717-.991-.981-.959-.341-1.41-.87-1.41-1.509 0-.86.693-1.564 1.84-1.564.54 0 1.014.153 1.311.33l-.242.705a2.076 2.076 0 0 0-1.091-.309c-.573 0-.893.331-.893.728 0 .44.319.639 1.015.903.925.353 1.398.815 1.398 1.608 0 .937-.727 1.598-1.994 1.598-.583 0-1.123-.144-1.498-.364l.242-.738zm11.27-6.347a11.106 11.106 0 0 1 1.84-.144c.946 0 1.642.221 2.082.617.407.354.65.894.65 1.554 0 .673-.199 1.201-.573 1.587-.507.54-1.333.815-2.27.815-.287 0-.551-.012-.771-.066v2.975h-.958v-7.338zm.958 3.581c.21.055.474.077.793.077 1.157 0 1.862-.562 1.862-1.586 0-.981-.694-1.455-1.751-1.455-.42 0-.739.034-.904.078v2.886zm7.491-1.575l1.047 2.996c.176.485.319.927.43 1.366h.033c.121-.439.274-.881.45-1.366l1.037-2.996h1.014l-2.094 5.332h-.926l-2.027-5.332h1.036zm8.295-1.532v1.532h1.389v.738h-1.389v2.875c0 .661.188 1.036.728 1.036.254 0 .441-.033.563-.066l.044.727c-.188.077-.485.133-.859.133-.452 0-.814-.144-1.047-.407-.275-.287-.375-.761-.375-1.389V68.37h-.825v-.738h.825v-1.278l.946-.254zm4.418 6.291c0-.407.275-.693.662-.693.386 0 .649.286.649.693 0 .396-.253.694-.66.694-.386 0-.651-.298-.651-.694zm30.074 0c0-.407.276-.693.662-.693s.649.286.649.693c0 .396-.253.694-.66.694-.386 0-.651-.298-.651-.694zm-20.786-6.852h.958v6.62h3.173v.805h-4.131v-7.425zm8.494.561v1.532h1.388v.738h-1.388v2.875c0 .661.188 1.036.728 1.036.253 0 .44-.033.562-.066l.044.727c-.188.077-.485.133-.859.133-.451 0-.815-.144-1.047-.407-.275-.287-.374-.761-.374-1.389V68.37h-.826v-.738h.826v-1.278l.946-.254zm9.22-.958v6.444c0 .475.011 1.015.045 1.378h-.871l-.044-.926h-.021c-.298.595-.947 1.047-1.818 1.047-1.289 0-2.28-1.091-2.28-2.71-.012-1.773 1.09-2.864 2.391-2.864.814 0 1.365.385 1.607.815h.023v-3.185h.968zm-.969 4.66c0-.121-.011-.286-.045-.408-.144-.616-.672-1.123-1.399-1.123-1.001 0-1.597.882-1.597 2.061 0 1.08.529 1.972 1.575 1.972.649 0 1.245-.43 1.421-1.156.034-.132.045-.265.045-.419v-.927z" fill="#FFF"/></svg>